<svg id="Layer_3" xmlns="http://www.w3.org/2000/svg" width="480" height="409.83" viewBox="0 0 480 409.83">
  <title>Team_Logos_Text_Seoul</title>
  <g>
    <path fill="#fff" d="M122.15,358l3.28-.32a4,4,0,0,0,1.2,2.43,3.63,3.63,0,0,0,2.45.78,3.76,3.76,0,0,0,2.46-.69,2.05,2.05,0,0,0,.83-1.61,1.52,1.52,0,0,0-.35-1,2.78,2.78,0,0,0-1.21-.72q-.59-.21-2.7-.73a9.16,9.16,0,0,1-3.81-1.65,4.35,4.35,0,0,1-1.54-3.36,4.29,4.29,0,0,1,.72-2.39,4.53,4.53,0,0,1,2.09-1.69,8.38,8.38,0,0,1,3.29-.58,7.06,7.06,0,0,1,4.74,1.38,4.87,4.87,0,0,1,1.67,3.68l-3.37.15a2.86,2.86,0,0,0-.93-1.85,3.4,3.4,0,0,0-2.14-.56,3.86,3.86,0,0,0-2.3.6,1.22,1.22,0,0,0-.54,1,1.28,1.28,0,0,0,.5,1,8.87,8.87,0,0,0,3.1,1.12,16.38,16.38,0,0,1,3.64,1.2,4.69,4.69,0,0,1,1.85,1.7,5.26,5.26,0,0,1-.13,5.35,4.78,4.78,0,0,1-2.26,1.86,9.45,9.45,0,0,1-3.64.61,7.24,7.24,0,0,1-4.87-1.47A6.37,6.37,0,0,1,122.15,358Z" transform="translate(-10.8 -45.43)"></path>
    <path fill="#fff" d="M180.24,363.45V346.74h12.39v2.83h-9v3.7H192v2.82h-8.39v4.55h9.34v2.82Z" transform="translate(-10.8 -45.43)"></path>
    <path fill="#fff" d="M237.43,355.2a10.63,10.63,0,0,1,.76-4.29,7.87,7.87,0,0,1,1.56-2.29,6.51,6.51,0,0,1,2.16-1.5,9.18,9.18,0,0,1,3.6-.66,7.85,7.85,0,0,1,5.91,2.29,10.24,10.24,0,0,1,0,12.71,8.79,8.79,0,0,1-11.81,0A8.63,8.63,0,0,1,237.43,355.2Zm3.48-.11a6.26,6.26,0,0,0,1.31,4.3,4.51,4.51,0,0,0,6.64,0,6.39,6.39,0,0,0,1.29-4.36,6.29,6.29,0,0,0-1.26-4.29,4.67,4.67,0,0,0-6.71,0A6.31,6.31,0,0,0,240.91,355.08Z" transform="translate(-10.8 -45.43)"></path>
    <path fill="#fff" d="M298.13,346.74h3.37v9.05a18.92,18.92,0,0,0,.12,2.79,2.71,2.71,0,0,0,1,1.65,3.59,3.59,0,0,0,2.23.62,3.4,3.4,0,0,0,2.17-.59,2.32,2.32,0,0,0,.88-1.44,18.89,18.89,0,0,0,.15-2.84v-9.25h3.37v8.78a22.55,22.55,0,0,1-.27,4.25,4.7,4.7,0,0,1-1,2.1,5.09,5.09,0,0,1-2,1.36,8.56,8.56,0,0,1-3.21.51,9.26,9.26,0,0,1-3.63-.55,5.18,5.18,0,0,1-2-1.44,4.6,4.6,0,0,1-.95-1.85,20.26,20.26,0,0,1-.33-4.24Z" transform="translate(-10.8 -45.43)"></path>
    <path fill="#fff" d="M355.94,363.45V346.88h3.37v13.76h8.39v2.82Z" transform="translate(-10.8 -45.43)"></path>
    <g>
      <g>
        <polygon fill="#aa8a00" points="243.65 336.33 205.49 409.83 223.68 409.83 261.83 336.33 243.65 336.33"></polygon>
        <polygon fill="#aa8a00" points="256.88 355.51 247.77 373.08 266.75 409.83 284.94 409.83 256.88 355.51"></polygon>
      </g>
      <path fill="#aa8a00" d="M417.24,381.76h-59.3V384a11,11,0,0,0,11,11h11v60.27h15.72V395h21.62Z" transform="translate(-10.8 -45.43)"></path>
      <path fill="#aa8a00" d="M490.8,381.76H471.58l-15.47,26.73h-.52l-15.47-26.73H420.91s16.81,26.59,27,42.66v30.84h15.72V424.61C473.86,408.55,490.8,381.76,490.8,381.76Z" transform="translate(-10.8 -45.43)"></path>
      <path fill="#aa8a00" d="M148.9,381.76H129.69l-15.47,26.73h-.52L98.23,381.76H79s16.81,26.59,27,42.66v30.84h15.72V424.61C132,408.55,148.9,381.76,148.9,381.76Z" transform="translate(-10.8 -45.43)"></path>
      <path fill="#aa8a00" d="M348.56,412.69H316.77s-2.71.12-2.34-3.1V398s-.15-3.39,4.09-3h24a11,11,0,0,0,11-11v-2.27h-44s-9.09-.4-9.37,7.51v28.18s-.85,8.3,8.16,8.51h30.81s3-.07,3.25,2.77v10.72s0,2.24-3,2.59H300.67v13.23H348a10.12,10.12,0,0,0,8.51-8.15V421.35S356.43,413,348.56,412.69Z" transform="translate(-10.8 -45.43)"></path>
      <g>
        <path fill="#aa8a00" d="M10.8,381.76V384a11,11,0,0,0,5.44,9.44v19.39H11.15v7.92s-.08,4.17,5.08,4.49v30H32v-73.5Z" transform="translate(-10.8 -45.43)"></path>
        <path fill="#aa8a00" d="M69.67,381.78H35.88v13.27H60.17s3-.07,3.25,2.77v38.09c-.33,6-5.39,5.58-5.39,5.58H35.88v13.76H69.67c8.09-1.56,7.95-8.66,7.95-8.66V390.44S77.76,383.35,69.67,381.78Z" transform="translate(-10.8 -45.43)"></path>
      </g>
      <path fill="#aa8a00" d="M202.76,381.78H169.38a1.13,1.13,0,0,1-1-.53h0a6.28,6.28,0,0,0-5.27-2.81h-8.64v76.82h14.07V398.44a4.17,4.17,0,0,1,4.2-3.33h20.68a4.17,4.17,0,0,1,4.2,3.33v56.82h14.07V389.91C210.11,381.25,202.76,381.78,202.76,381.78Z" transform="translate(-10.8 -45.43)"></path>
    </g>
    <polygon fill="#fff" points="121.83 14.11 126.27 56.56 104.46 107.88 112.22 106.39 123.13 179.35 129.17 173.08 167.54 220.63 167.75 202.79 133.4 162.63 124.67 103.2 149.51 47.08 124.21 15.26 121.83 14.11"></polygon>
    <polygon fill="#fff" points="174.87 118.49 178.48 132.93 205.38 143.33 200.49 128.65 174.87 118.49"></polygon>
    <path fill="#aa8a00" d="M357.13,58.13,351.2,53l-42.09,3.84L284,45.43h-78.2L180.65,56.87,138.56,53l-5.93,5.09v1.42l34.84,16.79-32,72.3,8.73,59.42,34.35,40.17V230.08l-25.07-29.23L147,148.91,164.56,109l19.53-11.77L165.66,142l54.44,21.47,7.76,28.95-6.23,15.24-2.49-8.31-39.06-15.51-5.82-22.72-13.44-5.82,5.12,42.39,16.62,14.68,12.6-8.45v39.63l25.9,27.41,18.42-6.37-21.05-19V226.76l26.44,24.38h0l26.44-24.38V245.6l-21.05,19,18.42,6.37,25.9-27.41V203.9l12.6,8.45,16.62-14.68,5.12-42.39-13.44,5.82-5.82,22.72-39.06,15.51-2.49,8.31-6.23-15.24,7.76-28.95L324.1,142,305.67,97.25,325.21,109l17.59,39.89-6.51,51.94-25.07,29.23v18.15l34.35-40.17,8.73-59.42-32-72.3,34.84-16.79ZM252.51,126.79l-7.63,17.34-7.63-17.34-44.93-17,11.23-8.29L233,113.38l-2-11.89-30.1-11.67,10.25-7.63,19.63,7.63-2-11.45L209.77,71l8.83-7.42,26.28,8.94h0l26.28-8.94L280,71l-19.08,7.42-2,11.45,19.63-7.63,10.25,7.63-30.1,11.67-2,11.89,29.44-11.89,11.23,8.29Z" transform="translate(-10.8 -45.43)"></path>
    <polygon fill="#fff" points="346.34 14.11 341.9 56.56 363.72 107.88 355.95 106.39 345.04 179.35 339 173.08 300.63 220.63 300.42 202.79 334.77 162.63 343.5 103.2 318.66 47.08 343.97 15.26 346.34 14.11"></polygon>
    <polygon fill="#fff" points="293.3 118.49 289.69 132.93 262.79 143.33 267.68 128.65 293.3 118.49"></polygon>
    <polygon fill="#fff" points="261.1 241.73 234.09 232.36 207.08 241.73 189.44 223.59 199.01 256.58 215.45 252.99 234.09 272.51 252.72 252.99 269.17 256.58 278.73 223.59 261.1 241.73"></polygon>
  </g>
</svg>